<?xml version="1.0" encoding="UTF-8" standalone="no"?>
<!-- Created with Inkscape (http://www.inkscape.org/) -->
<svg
   xmlns:dc="http://purl.org/dc/elements/1.1/"
   xmlns:cc="http://creativecommons.org/ns#"
   xmlns:rdf="http://www.w3.org/1999/02/22-rdf-syntax-ns#"
   xmlns:svg="http://www.w3.org/2000/svg"
   xmlns="http://www.w3.org/2000/svg"
   xmlns:xlink="http://www.w3.org/1999/xlink"
   xmlns:sodipodi="http://sodipodi.sourceforge.net/DTD/sodipodi-0.dtd"
   xmlns:inkscape="http://www.inkscape.org/namespaces/inkscape"
   inkscape:export-ydpi="90.000000"
   inkscape:export-xdpi="90.000000"
   inkscape:export-filename="/home/jimmac/Desktop/wi-fi.png"
   width="48px"
   height="48px"
   id="svg11300"
   sodipodi:version="0.32"
   inkscape:version="0.46"
   sodipodi:docbase="/home/tigert/cvs/freedesktop.org/tango-icon-theme/scalable/emblems"
   sodipodi:docname="setup.svg"
   inkscape:output_extension="org.inkscape.output.svg.inkscape">
  <defs
     id="defs3">
    <inkscape:perspective
       sodipodi:type="inkscape:persp3d"
       inkscape:vp_x="0 : 24 : 1"
       inkscape:vp_y="0 : 1000 : 0"
       inkscape:vp_z="48 : 24 : 1"
       inkscape:persp3d-origin="24 : 16 : 1"
       id="perspective22" />
    <linearGradient
       id="linearGradient3264">
      <stop
         style="stop-color: rgb(201, 201, 201); stop-opacity: 1;"
         offset="0"
         id="stop3266" />
      <stop
         id="stop3276"
         offset="0.25"
         style="stop-color: rgb(248, 248, 248); stop-opacity: 1;" />
      <stop
         id="stop3272"
         offset="0.5"
         style="stop-color: rgb(226, 226, 226); stop-opacity: 1;" />
      <stop
         style="stop-color: rgb(176, 176, 176); stop-opacity: 1;"
         offset="0.75"
         id="stop3274" />
      <stop
         style="stop-color: rgb(201, 201, 201); stop-opacity: 1;"
         offset="1"
         id="stop3268" />
    </linearGradient>
    <linearGradient
       inkscape:collect="always"
       id="linearGradient3256">
      <stop
         style="stop-color: rgb(0, 0, 0); stop-opacity: 1;"
         offset="0"
         id="stop3258" />
      <stop
         style="stop-color: rgb(0, 0, 0); stop-opacity: 0;"
         offset="1"
         id="stop3260" />
    </linearGradient>
    <radialGradient
       inkscape:collect="always"
       xlink:href="#linearGradient3256"
       id="radialGradient3262"
       cx="25.455845"
       cy="39.161163"
       fx="25.455845"
       fy="39.161163"
       r="19.622213"
       gradientTransform="matrix(1, 0, 0, 0.315315, 0, 26.813)"
       gradientUnits="userSpaceOnUse" />
    <linearGradient
       inkscape:collect="always"
       xlink:href="#linearGradient3264"
       id="linearGradient3281"
       gradientUnits="userSpaceOnUse"
       x1="14.462892"
       y1="12.284524"
       x2="34.534348"
       y2="39.684914"
       gradientTransform="matrix(1.24194, 0, 0, 1.24194, -5.02751, -7.20899)" />
    <linearGradient
       inkscape:collect="always"
       xlink:href="#linearGradient3264"
       id="linearGradient3291"
       gradientUnits="userSpaceOnUse"
       gradientTransform="matrix(1.2419415,0,0,1.241848,-5.0275463,-7.1988722)"
       x1="14.462892"
       y1="12.284524"
       x2="34.534348"
       y2="39.684914" />
  </defs>
  <sodipodi:namedview
     stroke="#ef2929"
     fill="#eeeeec"
     id="base"
     pagecolor="#ffffff"
     bordercolor="#666666"
     borderopacity="0.25490196"
     inkscape:pageopacity="0.0"
     inkscape:pageshadow="2"
     inkscape:zoom="8"
     inkscape:cx="40.773744"
     inkscape:cy="23.823982"
     inkscape:current-layer="layer1"
     showgrid="false"
     inkscape:grid-bbox="true"
     inkscape:document-units="px"
     inkscape:showpageshadow="false"
     inkscape:window-width="1555"
     inkscape:window-height="1025"
     inkscape:window-x="133"
     inkscape:window-y="104"
     inkscape:snap-global="false">
    <inkscape:grid
       type="xygrid"
       id="grid3176" />
  </sodipodi:namedview>
  <metadata
     id="metadata4">
    <rdf:RDF>
      <cc:Work
         rdf:about="">
        <dc:format>image/svg+xml</dc:format>
        <dc:type
           rdf:resource="http://purl.org/dc/dcmitype/StillImage" />
        <dc:creator>
          <cc:Agent>
            <dc:title>Jakub Steiner</dc:title>
          </cc:Agent>
        </dc:creator>
        <dc:source>http://jimmac.musichall.cz</dc:source>
        <cc:license
           rdf:resource="http://creativecommons.org/licenses/by-sa/2.0/" />
        <dc:title>Emblem System</dc:title>
        <dc:subject>
          <rdf:Bag>
            <rdf:li>emblem</rdf:li>
            <rdf:li>system</rdf:li>
            <rdf:li>library</rdf:li>
            <rdf:li>crucial</rdf:li>
            <rdf:li>base</rdf:li>
          </rdf:Bag>
        </dc:subject>
      </cc:Work>
      <cc:License
         rdf:about="http://creativecommons.org/licenses/by-sa/2.0/">
        <cc:permits
           rdf:resource="http://web.resource.org/cc/Reproduction" />
        <cc:permits
           rdf:resource="http://web.resource.org/cc/Distribution" />
        <cc:requires
           rdf:resource="http://web.resource.org/cc/Notice" />
        <cc:requires
           rdf:resource="http://web.resource.org/cc/Attribution" />
        <cc:permits
           rdf:resource="http://web.resource.org/cc/DerivativeWorks" />
        <cc:requires
           rdf:resource="http://web.resource.org/cc/ShareAlike" />
      </cc:License>
    </rdf:RDF>
  </metadata>
  <g
     id="layer1"
     inkscape:label="Layer 1"
     inkscape:groupmode="layer">
    <path
       style="opacity:1;fill:url(#linearGradient3291);fill-opacity:1;fill-rule:nonzero;stroke:#36556b;stroke-width:1.6;stroke-linecap:butt;stroke-linejoin:miter;marker:none;stroke-miterlimit:4;stroke-dasharray:none;stroke-dashoffset:0;stroke-opacity:1;visibility:visible;display:inline;overflow:visible"
       d="M 23.249999,0.4782989 C 22.784559,0.51014282 22.332163,0.58222588 21.874997,0.63453732 L 21.843747,0.63453732 L 20.749995,6.6028448 C 18.967268,7.0088046 17.290082,7.6977551 15.781239,8.6339442 L 10.874983,5.102956 C 9.5486934,6.1325702 8.3417817,7.3333859 7.2812288,8.6339442 L 10.687483,13.602326 C 9.6532488,15.182724 8.8755125,16.987299 8.4374802,18.883184 C 8.4374052,18.892147 8.4374193,18.91287 8.4374802,18.914432 L 2.4999729,19.851862 C 2.3914194,20.73843 2.3437227,21.654668 2.3437227,22.570411 C 2.3437228,23.319655 2.3644121,24.058889 2.4374728,24.788996 L 8.3749801,25.851418 C 8.7972597,27.913157 9.5994404,29.838634 10.718733,31.538496 L 7.1874787,36.381887 C 8.198806,37.637312 9.3663731,38.780325 10.624983,39.787884 L 15.624989,36.350639 C 17.372424,37.465273 19.323077,38.246872 21.437496,38.63172 L 22.374997,44.537532 C 23.041181,44.598166 23.724348,44.600027 24.40625,44.600027 C 25.368936,44.600026 26.288489,44.563547 27.218753,44.443789 L 28.343755,38.412986 C 30.351318,37.913422 32.237229,37.046797 33.875012,35.881924 L 38.687518,39.381664 C 39.935547,38.319946 41.076798,37.099577 42.062522,35.788181 L 38.562518,30.726056 C 39.510372,29.089187 40.167149,27.28317 40.50002,25.351455 L 46.406277,24.414024 C 46.458071,23.797724 46.468777,23.200027 46.468777,22.570411 C 46.468777,21.476278 46.341595,20.403487 46.187527,19.351899 L 40.18752,18.258231 C 39.717325,16.522135 38.945842,14.902377 37.968767,13.446087 L 41.500021,8.6026965 C 40.405447,7.2641886 39.15684,6.0277062 37.781267,4.9779653 L 32.68751,8.4777058 C 31.223512,7.6119326 29.648043,6.9476371 27.937504,6.5715971 L 27.000003,0.63453732 C 26.146703,0.53416937 25.28638,0.4782989 24.40625,0.4782989 C 24.168378,0.47829891 23.923565,0.47081486 23.687499,0.4782989 C 23.572416,0.48194744 23.458533,0.4716045 23.343749,0.4782989 C 23.312661,0.48011197 23.281028,0.47617597 23.249999,0.4782989 z M 24.0625,15.664673 C 24.176666,15.65888 24.290652,15.664673 24.40625,15.664673 C 28.105382,15.664673 31.125008,18.684073 31.125008,22.382925 C 31.125009,26.081776 28.105381,29.069929 24.40625,29.069929 C 20.70712,29.06993 17.718742,26.081776 17.718742,22.382925 C 17.718743,18.799663 20.523345,15.844252 24.0625,15.664673 z"
       id="path3243" />
    <path
       id="path3285"
       d="M 22.557788,1.6501132 L 21.679599,7.4291233 C 20.008601,7.8096689 16.934874,8.9735344 15.520595,9.8511162 L 10.848562,6.3639293 C 9.6053938,7.3290873 9.5201391,7.3945394 8.5260544,8.6136804 L 11.904107,13.623634 C 10.934692,15.105095 9.7703031,17.745129 9.3522336,19.631722 C 9.3522336,19.631722 3.4328248,20.629563 3.4328248,20.629563 C 3.3310749,21.460629 3.3799751,23.239361 3.4484569,23.923761 L 9.1027005,24.942349 C 9.4985145,26.875018 10.979731,29.985937 12.028874,31.579383 L 8.4532981,36.303427 C 9.4012426,37.480259 9.5909623,37.587948 10.770691,38.532432 L 15.551859,35.029612 C 17.189777,36.074467 20.440892,37.345498 22.422794,37.706253 L 23.207481,43.412507 C 23.831913,43.469346 25.556962,43.628788 26.428924,43.516527 L 27.307112,37.576373 C 29.188855,37.108084 32.440272,35.773413 33.97541,34.681463 L 38.751465,38.132271 C 39.921276,37.13702 39.931757,36.987055 40.855703,35.757755 L 37.316505,30.727054 C 38.204954,29.192656 39.353733,26.191831 39.665742,24.381045 L 45.460384,23.419582 C 45.508931,22.841863 45.511294,21.230793 45.366882,20.245037 L 39.463105,19.226449 C 39.022378,17.599038 37.509894,14.666467 36.594056,13.301345 L 40.346408,8.5773019 C 39.320436,7.3225876 38.938964,7.150431 37.649602,6.1664065 L 32.707289,9.7056032 C 31.335043,8.8940304 28.598675,7.6568558 26.995341,7.3043568 L 26.122266,1.6501132 C 25.322445,1.5560285 23.014871,1.5978075 22.557788,1.6501132 z"
       style="overflow:visible;marker:none;opacity:0.34659099999999998;color:rgb(0, 0, 0);fill:none;fill-opacity:1;fill-rule:nonzero;stroke:#365000;stroke-width:1;stroke-linecap:butt;stroke-linejoin:miter;stroke-miterlimit:4;stroke-dasharray:none;stroke-dashoffset:0pt;stroke-opacity:0;visibility:visible;display:inline"
       sodipodi:nodetypes="ccccccccccccccccccccccccccccccccc" />
    <path
       sodipodi:type="arc"
       style="opacity:0.64772704;fill:none;fill-opacity:1;fill-rule:nonzero;stroke:#ffffff;stroke-width:2.47313356;stroke-linecap:butt;stroke-linejoin:miter;marker:none;stroke-miterlimit:4;stroke-dasharray:none;stroke-dashoffset:0;stroke-opacity:1;visibility:visible;display:inline;overflow:visible"
       id="path3283"
       sodipodi:cx="23.511301"
       sodipodi:cy="23.781593"
       sodipodi:rx="12.727922"
       sodipodi:ry="12.727922"
       d="M 36.239223,23.781593 A 12.727922,12.727922 0 1 1 10.783379,23.781593 A 12.727922,12.727922 0 1 1 36.239223,23.781593 z"
       transform="matrix(0.6516355,0,0,0.6520284,9.0841979,6.8678522)" />
  </g>
</svg>
