/* XPM */
static char * sunpinyin_logo_xpm[] = {
"18 18 5 1",
" 	c None",
".	c #0000E0",
"+	c #000000",
"@	c #FF0000",
"#	c #FFFF00",
"                  ",
" .......  . . ... ",
" .        . . . . ",
" .......  . . . . ",
"  ++++++ +++. +++ ",
" +@@@@@@+###++### ",
"  +@@++@@+##++##+ ",
" .+@@++@@++##+#+. ",
"  +@@++@@++###+   ",
"  +@@@@@+  +##+   ",
" .+@@+++  .+##+.. ",
" .+@@++.  .+##+   ",
" +@@@@@+  +####+. ",
" .+++++.   ++++   ",
" . . . .  ....... ",
" . . . .        . ",
" ... . .  ....... ",
"                  "};
